<?xml version="1.0" encoding="UTF-8"?>
<svg width="909px" height="1038px" viewBox="0 0 909 1038" version="1.1" xmlns="http://www.w3.org/2000/svg" xmlns:xlink="http://www.w3.org/1999/xlink">
    <!-- Generator: Sketch 49.3 (51167) - http://www.bohemiancoding.com/sketch -->
    <title>Group 2</title>
    <desc>Created with Sketch.</desc>
    <defs></defs>
    <g id="Page-1" stroke="none" stroke-width="1" fill="none" fill-rule="evenodd">
        <g id="Group-2">
            <path d="M908.223158,284.01939 C908.223158,266.443422 899.215896,250.245402 883.993597,241.47169 L477.59767,6.58222984 C462.401322,-2.19407661 443.795137,-2.19407661 428.596194,6.58222984 L23.3187137,241.360105 C8.11977022,250.136412 0,266.360382 0,283.9104 L0,753.889136 C0,771.436559 8.17167032,787.663124 23.3446638,796.436836 L429.27349,1031.39636 C444.469838,1040.20121 462.896968,1040.20121 478.093316,1031.39636 L884.203793,796.436836 C899.400141,787.634579 908.251703,771.433964 908.251703,753.889136 L908.223158,284.01939 Z" id="Shape" fill="#8CC84B" fill-rule="nonzero"></path>
            <g id="Group" transform="translate(223.000000, 166.000000)">
                <path d="M147.43153,189.126733 C141.07353,193.102733 131.49553,199.543733 124.08553,206.548733 C111.92053,218.036733 109.37353,233.972733 115.79153,237.695733 C121.72853,241.136733 135.58753,237.042733 145.50653,226.224733 C155.91653,214.865733 160.20853,200.465733 155.77553,184.119733 C155.25453,184.430733 154.74253,184.741733 154.24153,185.032733 L154.25153,185.053733 L153.57953,185.434733 C150.99153,186.980733 148.87553,188.254733 147.43153,189.126733 Z M326.08253,183.969733 C322.48153,191.795733 322.30153,194.313733 323.39453,195.097733 C328.62053,193.220733 337.26453,188.695733 337.33353,176.572733 C337.34453,174.757733 336.94353,172.809733 336.30153,170.773733 C330.71553,175.720733 327.49553,180.898733 326.08253,183.969733 Z M348.84653,164.160733 C350.41153,168.234733 351.61453,172.478733 351.78453,176.753733 C352.17653,186.136733 345.71853,193.080733 338.98753,198.038733 C335.05653,200.927733 330.87453,202.854733 327.36453,204.017733 C324.55653,205.202733 320.82653,206.425733 318.17753,205.885733 C312.34053,204.699733 309.23253,199.512733 313.20353,188.073733 C315.34953,181.883733 321.53653,172.459733 331.52553,164.341733 C329.24953,159.655733 326.71153,154.879733 325.41853,150.492733 C322.87053,141.843733 322.09953,136.615733 322.09953,136.615733 C322.09953,136.615733 313.86653,153.684733 303.24553,169.208733 C302.63353,170.110733 302.02153,170.994733 301.40953,171.876733 C303.49553,176.724733 305.13953,181.851733 305.36153,187.020733 C305.75253,196.402733 301.69053,203.497733 294.95053,208.443733 C291.30153,211.133733 287.40953,212.991733 284.06953,214.174733 C281.93353,215.107733 277.59053,216.641733 271.41353,217.054733 C268.03453,217.284733 264.78453,217.075733 262.97053,215.700733 C260.47353,213.813733 260.17253,211.485733 261.46553,208.304733 C262.55953,205.604733 270.74153,196.263733 277.60253,188.084733 C279.49753,185.826733 281.30253,183.518733 282.91653,181.381733 C282.87753,181.290733 284.12053,179.685733 286.13653,176.885733 C283.62953,171.486733 280.45053,165.866733 278.95553,160.769733 C276.40753,152.121733 275.63653,146.891733 275.63653,146.891733 C275.63653,146.891733 267.29153,168.286733 258.59753,185.365733 C251.86853,198.592733 247.37553,206.608733 245.35053,210.120733 C245.32953,210.262733 245.02853,210.774733 244.50753,211.577733 C241.84953,215.500733 236.78453,222.032733 231.75053,222.032733 C217.93153,222.032733 223.00553,193.964733 223.00553,193.964733 C223.00553,193.964733 218.96453,204.360733 214.41153,213.281733 C210.70153,220.556733 207.32153,226.719733 199.93053,226.719733 C197.80453,226.719733 194.43453,226.658733 191.63653,223.998733 C185.28853,217.967733 180.43453,202.653733 181.38653,190.793733 C182.19853,180.708733 183.75353,173.724733 185.87953,167.895733 C182.08853,169.961733 177.70653,172.411733 173.24353,175.030733 L166.38353,179.073733 C172.28053,190.453733 173.79453,214.506733 161.41953,232.970733 C149.04453,251.444733 126.00853,262.683733 103.56453,256.442733 C96.3235304,254.424733 85.3825304,239.443733 94.8195304,218.560733 C103.14253,200.146733 136.40753,182.736733 145.17353,178.391733 L147.58053,177.066733 C130.10153,161.773733 86.4565304,141.142733 80.3385304,109.452733 C78.6135304,100.531733 82.7955304,79.1977331 108.98953,54.6737331 C131.02253,34.0517331 161.67053,18.2567331 189.98153,8.19173314 C237.54653,-8.71626686 287.80153,1.25773314 295.53253,31.5827331 C303.13453,61.4067331 277.26153,97.0807331 244.12653,109.904733 C214.54153,121.353733 190.08153,119.537733 180.03253,116.237733 C168.61053,112.484733 161.91053,104.947733 160.27653,100.693733 C159.63453,99.0277331 158.53053,96.2287331 160.27653,95.2647331 C161.34953,94.6727331 161.78053,94.8137331 164.64853,97.9847331 C167.37653,100.994733 178.34753,109.073733 199.18753,106.734733 C253.87453,100.603733 286.81753,58.0857331 276.40753,35.2067331 C269.11753,19.1907331 226.96753,11.9657331 174.30653,38.2267331 C110.02253,70.2777331 106.53353,96.6997331 105.98153,106.734733 C104.47753,134.339733 140.02853,148.860733 159.26353,169.390733 L160.00553,170.203733 C163.60553,168.216733 167.40653,166.119733 171.13753,164.072733 C180.83553,158.743733 189.98153,153.745733 194.24353,151.417733 C201.01353,141.575733 214.75153,130.716733 224.67053,130.716733 C240.52553,130.716733 235.08053,153.505733 235.08053,153.505733 C235.08053,153.505733 235.40153,152.462733 235.83253,152.452733 C236.28353,152.441733 238.02853,149.451733 242.92353,151.236733 C247.95753,153.083733 246.81353,156.616733 246.84453,156.977733 C246.90453,157.678733 240.89753,177.939733 238.40053,190.934733 C237.20653,197.135733 237.89853,201.652733 238.25053,201.652733 C238.74153,201.652733 239.74453,200.076733 240.67753,198.381733 C240.65653,198.330733 241.35853,197.046733 242.53253,194.738733 C244.15753,191.568733 246.10253,187.584733 248.34853,182.647733 C252.75053,172.944733 269.54853,135.483733 270.97253,131.339733 C272.39653,127.195733 273.13853,122.910733 273.84153,121.073733 C274.53353,119.237733 280.47053,117.852733 287.40953,117.902733 C294.34953,117.953733 295.05253,120.913733 295.10153,121.525733 C295.15153,122.137733 291.80153,130.356733 291.02953,136.166733 C290.26753,141.976733 291.00053,144.875733 291.63253,149.752733 C292.04353,152.942733 294.03853,156.987733 296.39653,161.573733 C303.57753,149.832733 316.21153,127.375733 317.42553,121.083733 C318.25753,116.778733 319.59153,112.654733 320.29353,110.817733 C320.99553,108.980733 326.92353,107.596733 333.86253,107.646733 C340.80153,107.696733 341.50353,110.657733 341.55453,111.269733 C341.60453,111.881733 338.24353,120.100733 337.48253,125.910733 C336.71953,131.710733 337.45353,134.620733 338.08353,139.497733 C338.62653,143.671733 341.85453,149.280733 345.05553,155.662733 C353.78853,151.356733 364.06853,148.468733 376.10353,148.407733 C381.08753,148.378733 386.87453,148.879733 389.86353,149.811733 L389.87453,161.682733 C387.88853,161.098733 384.98053,160.637733 382.15153,160.307733 C368.19253,158.680733 357.30053,160.638733 348.84653,164.160733 Z M213.67053,150.823733 C210.31153,154.586733 204.58553,164.289733 201.90653,172.409733 C196.58153,188.534733 198.88753,204.921733 202.65853,205.905733 C207.06053,207.058733 214.28253,185.504733 217.74053,177.074733 C219.90753,171.796733 228.33153,148.366733 226.48653,145.235733 C225.04453,142.786733 219.07553,144.763733 213.67053,150.823733 Z M274.59553,205.172733 C274.59553,205.172733 273.53353,206.176733 273.99353,206.457733 C274.61553,206.828733 275.95953,206.346733 277.42353,205.583733 C281.56553,202.975733 290.86153,196.472733 290.88153,186.849733 C290.88153,186.568733 290.87053,186.297733 290.85153,186.006733 C288.69553,188.836733 286.70953,191.354733 284.99553,193.492733 C282.06653,197.133733 274.59553,205.172733 274.59553,205.172733 Z" id="Shape" fill="#FFFFFF" fill-rule="nonzero"></path>
                <g id="Npm-logo" transform="translate(0.000000, 466.000000)" fill-rule="nonzero">
                    <path d="M0,0 L463,0 L463,154.285714 L231.5,154.285714 L231.5,180 L128.611111,180 L128.611111,154.285714 L0,154.285714 L0,0 Z M25.7222222,128.571429 L77.1666667,128.571429 L77.1666667,51.4285714 L102.888889,51.4285714 L102.888889,128.571429 L128.611111,128.571429 L128.611111,25.7142857 L25.7222222,25.7142857 L25.7222222,128.571429 Z M154.333333,25.7142857 L154.333333,154.285714 L205.777778,154.285714 L205.777778,128.571429 L257.222222,128.571429 L257.222222,25.7142857 L154.333333,25.7142857 Z M205.777778,51.4285714 L231.5,51.4285714 L231.5,102.857143 L205.777778,102.857143 L205.777778,51.4285714 Z M282.944444,25.7142857 L282.944444,128.571429 L334.388889,128.571429 L334.388889,51.4285714 L360.111111,51.4285714 L360.111111,128.571429 L385.833333,128.571429 L385.833333,51.4285714 L411.555556,51.4285714 L411.555556,128.571429 L437.277778,128.571429 L437.277778,25.7142857 L282.944444,25.7142857 Z" id="Shape" fill="#CB3837"></path>
                    <polygon id="Shape" fill="#FFFFFF" points="26 129 77.5 129 77.5 51.75 103.25 51.75 103.25 129 129 129 129 26 26 26"></polygon>
                    <path d="M154,26 L154,155 L205.5,155 L205.5,129.2 L257,129.2 L257,26 L154,26 Z M231.25,103.4 L205.5,103.4 L205.5,51.8 L231.25,51.8 L231.25,103.4 Z" id="Shape" fill="#FFFFFF"></path>
                    <polygon id="Shape" fill="#FFFFFF" points="283 26 283 129 334.333333 129 334.333333 51.75 360 51.75 360 129 385.666667 129 385.666667 51.75 411.333333 51.75 411.333333 129 437 129 437 26"></polygon>
                </g>
                <text id="+" font-family="RobotoMono-Regular, Roboto Mono" font-size="200" font-weight="normal" letter-spacing="1.28205132" fill="#FFFFFF">
                    <tspan x="170" y="412">+</tspan>
                </text>
            </g>
        </g>
    </g>
</svg>